<?xml version="1.0" encoding="UTF-8"?>
<svg xmlns="http://www.w3.org/2000/svg" version="1.1" viewBox="0 0 576 512">
  <defs>
    <style>
      .cls-1 {
        fill: #fff;
      }

      .cls-2 {
        fill: #ed3e78;
      }
    </style>
  </defs>
  <!-- Generator: Adobe Illustrator 28.7.1, SVG Export Plug-In . SVG Version: 1.2.0 Build 142)  -->
  <g>
    <g id="Layer_1">
      <path class="cls-1" d="M107.1,416c-26.5,0-48,21.5-48,48s21.5,48,48,48,25.3-5.4,33.9-14.1c8.7-8.7,14.1-20.7,14.1-33.9,0-26.5-21.5-48-48-48ZM395.1,416c-26.5,0-48,21.5-48,48s21.5,48,48,48,48-21.5,48-48-21.5-48-48-48ZM547.1,0h-45.5c-22,0-41.5,12.8-50.6,32H40C13.7,32-5.5,57,1.4,82.4l41,152.3c8.5,31.4,37,53.3,69.5,53.3h288.5l-5.4,28.5c-2.2,11.3-12.1,19.5-23.6,19.5H83.1c-13.3,0-24,10.7-24,24s10.7,24,24,24h288.3c34.6,0,64.3-24.6,70.7-58.5l51.6-271c.7-3.8,4-6.5,7.9-6.5h45.5c13.3,0,24-10.7,24-24s-10.7-24-24-24ZM299.1,180h-44v44c0,11-9,20-20,20s-20-9-20-20v-44h-44c-11,0-20-9-20-20s9-20,20-20h44v-44c0-11,9-20,20-20s20,9,20,20v44h44c11,0,20,9,20,20s-9,20-20,20Z"/>
      <path class="cls-2" d="M319.1,160c0,11-9,20-20,20h-44v44c0,11-9,20-20,20s-20-9-20-20v-44h-44c-11,0-20-9-20-20s9-20,20-20h44v-44c0-11,9-20,20-20s20,9,20,20v44h44c11,0,20,9,20,20Z"/>
    </g>
  </g>
</svg>